<?xml version="1.0" standalone="no"?>
<!DOCTYPE svg PUBLIC "-//W3C//DTD SVG 20010904//EN"
 "http://www.w3.org/TR/2001/REC-SVG-20010904/DTD/svg10.dtd">
<svg version="1.0" xmlns="http://www.w3.org/2000/svg"
 width="610.000000pt" height="509.000000pt" viewBox="0 0 610.000000 509.000000"
 preserveAspectRatio="xMidYMid meet">

<g transform="translate(0.000000,509.000000) scale(0.100000,-0.100000)"
fill="#d8dce8" stroke="none">
<path d="M106 5057 c-78 -133 -107 -188 -104 -198 5 -15 22 12 87 134 29 53
48 97 44 97 -4 0 -17 -15 -27 -33z"/>
<path d="M843 5029 c19 -35 60 -106 90 -157 l54 -93 217 1 c124 0 216 -3 216
-8 0 -5 -7 -15 -15 -22 -26 -22 -16 -64 38 -156 29 -49 61 -105 70 -124 10
-19 31 -55 47 -80 16 -25 34 -55 39 -66 9 -20 37 -39 54 -36 4 1 7 -3 7 -10 0
-6 9 -3 20 7 11 10 20 14 20 9 0 -5 -48 -92 -106 -194 l-106 -185 -249 3 -249
3 -17 26 c-10 15 -66 110 -125 212 l-106 186 32 60 c18 33 53 96 78 140 24 44
62 111 82 148 21 37 36 70 34 72 -3 3 -41 -59 -86 -138 -137 -237 -159 -272
-170 -270 -5 1 -118 3 -251 3 l-240 1 -31 50 c-16 27 -30 52 -30 54 0 3 -20
38 -43 78 -24 39 -59 99 -78 132 l-34 60 -3 -98 c-3 -93 -1 -100 23 -128 14
-17 25 -36 25 -43 0 -7 13 -31 28 -52 15 -21 36 -55 45 -75 18 -39 37 -52 63
-42 17 6 21 13 -108 -210 -43 -76 -78 -143 -76 -149 3 -7 20 17 40 53 19 35
45 81 57 102 12 21 40 71 62 110 22 40 46 78 53 85 10 11 69 15 243 18 l230 5
61 -105 c34 -58 62 -110 62 -116 0 -5 5 -10 10 -10 6 0 10 -4 10 -10 0 -10 59
-111 70 -120 4 -3 13 -20 21 -38 10 -23 19 -32 32 -28 9 2 17 1 17 -3 0 -4
-51 -96 -114 -206 l-114 -198 -253 2 c-231 2 -255 3 -269 20 -8 10 -60 97
-115 193 -55 97 -101 171 -103 164 -1 -7 48 -100 110 -208 l113 -195 252 5
c238 4 252 4 262 -14 7 -11 65 -111 130 -223 l119 -204 254 2 255 2 75 -128
c41 -70 98 -170 127 -220 l53 -92 -26 -43 c-15 -24 -71 -119 -124 -212 l-98
-169 -255 2 c-181 2 -257 6 -265 14 -7 7 -24 35 -39 62 -15 28 -66 117 -113
198 l-85 148 43 82 c24 45 49 89 55 97 7 8 25 40 40 70 15 30 43 81 62 113 19
32 33 61 30 63 -7 7 -9 3 -142 -226 l-107 -185 -251 3 c-284 3 -253 -6 -308
91 -59 104 -73 130 -117 205 -25 44 -47 75 -50 68 -3 -9 116 -226 185 -334 12
-21 23 -45 23 -53 0 -21 -32 -82 -129 -249 -45 -77 -80 -146 -79 -154 3 -13
26 26 144 238 17 30 41 72 55 93 l24 38 95 0 c310 0 370 -2 370 -12 0 -6 16
-38 36 -72 20 -34 50 -87 67 -117 16 -30 36 -62 43 -70 7 -9 22 -36 33 -60 11
-25 21 -40 21 -35 1 6 6 -1 12 -15 6 -14 11 -28 10 -32 -2 -10 36 -20 48 -13
36 22 -48 -149 -162 -331 -14 -21 -27 -45 -29 -53 -4 -12 -49 -14 -265 -12
-247 2 -260 3 -274 22 -8 11 -63 104 -123 207 -59 103 -107 180 -107 171 0 -9
33 -72 73 -141 39 -68 92 -160 116 -204 l45 -79 265 3 266 3 49 -88 c79 -141
148 -255 153 -250 2 3 -31 65 -73 138 -43 74 -86 150 -97 170 l-20 35 83 149
c114 202 111 199 185 188 33 -4 116 -6 185 -3 102 5 133 10 169 28 25 12 50
22 55 22 6 0 36 -46 66 -101 30 -56 74 -131 98 -167 23 -36 42 -71 42 -78 0
-7 4 -15 9 -19 11 -6 41 -63 41 -77 0 -5 -5 -6 -12 -2 -7 4 -8 3 -4 -4 4 -6
-4 -31 -17 -54 -14 -24 -51 -88 -82 -143 -32 -55 -64 -112 -72 -127 l-14 -28
-243 0 c-223 0 -244 2 -259 18 -10 10 -17 24 -17 30 0 7 -4 12 -10 12 -14 0
-13 -1 16 -54 20 -35 31 -46 43 -41 9 4 117 6 241 6 201 -1 226 -3 238 -19 17
-22 220 -375 228 -395 3 -9 -23 -65 -67 -139 -40 -68 -92 -157 -116 -198 -24
-41 -49 -82 -55 -92 -10 -13 0 -37 57 -135 38 -65 89 -155 114 -200 29 -52 52
-83 63 -83 14 0 10 10 -17 51 -18 28 -44 71 -57 97 -12 25 -26 51 -31 57 -42
56 -107 183 -103 200 4 16 186 344 223 403 11 17 393 31 393 14 0 -6 -5 -14
-10 -17 -5 -3 -10 -14 -10 -24 0 -10 -7 -24 -15 -31 -24 -20 -18 -81 15 -145
16 -32 36 -65 43 -74 8 -9 25 -37 37 -63 13 -27 28 -48 32 -48 5 0 6 -4 3 -10
-3 -5 5 -25 19 -42 13 -18 31 -53 40 -77 13 -39 13 -48 0 -72 -8 -15 -14 -33
-14 -39 0 -6 -15 -34 -33 -63 -18 -29 -39 -67 -45 -85 l-11 -33 52 3 c40 2 54
8 62 23 6 11 37 67 69 125 33 58 68 121 79 140 40 74 25 70 282 70 195 0 235
2 245 15 11 13 -16 15 -237 15 l-249 0 -122 214 -123 214 115 203 c64 112 120
210 124 217 6 10 68 14 253 19 231 5 245 5 260 -13 8 -11 62 -100 119 -199 57
-99 109 -189 116 -200 14 -22 25 0 -171 -339 l-68 -120 24 -45 c91 -168 196
-341 206 -341 8 0 0 20 -17 50 -17 28 -30 53 -30 55 0 2 -22 39 -48 82 -26 43
-53 89 -61 103 -7 14 -21 40 -31 59 l-19 34 30 56 c38 71 94 173 156 281 l49
85 125 8 c68 4 182 6 253 5 l130 -3 122 -210 c68 -116 123 -214 124 -218 0 -9
-195 -353 -212 -374 -8 -9 -6 -13 4 -13 8 0 21 12 29 27 7 16 33 61 56 101 24
41 43 75 43 77 0 9 82 144 93 153 8 7 107 12 261 13 l249 2 106 -186 c58 -103
112 -186 119 -187 14 0 -10 46 -131 249 l-79 134 18 36 c11 20 66 120 123 221
l103 185 65 2 c39 2 70 8 77 15 6 8 22 22 36 33 l24 20 -17 -27 c-10 -16 -14
-28 -9 -28 16 0 91 86 95 110 4 22 4 22 6 -5 0 -17 -5 -37 -11 -44 -11 -11
-10 -13 2 -9 8 2 19 20 24 39 8 29 10 31 14 12 5 -31 22 -29 22 2 0 40 20 29
21 -12 2 -35 2 -35 6 -8 3 17 9 36 15 43 8 9 -21 12 -139 12 l-149 0 -69 123
c-38 67 -75 129 -82 138 -12 14 -9 24 20 75 70 121 116 212 110 218 -4 3 -1 6
6 6 7 0 9 4 6 10 -5 8 -84 4 -94 -6 -2 -2 13 -5 35 -5 23 -1 30 -4 17 -6 -13
-2 -23 -9 -23 -15 0 -6 -31 -41 -69 -78 -38 -37 -77 -82 -86 -100 -10 -19 -32
-54 -50 -80 -31 -44 -32 -47 -17 -75 14 -28 16 -28 24 -10 6 15 7 13 3 -8 -4
-21 3 -43 28 -85 19 -31 55 -93 81 -137 26 -44 52 -87 58 -96 8 -12 -15 -60
-118 -238 -111 -190 -132 -221 -149 -217 -11 3 -123 6 -250 6 l-230 0 -74 133
c-41 72 -91 159 -111 192 -54 87 -56 99 -27 148 14 23 40 69 57 102 40 74 72
128 79 135 4 3 7 12 9 20 3 12 60 108 66 111 0 0 107 3 236 5 129 3 241 7 249
10 29 10 -3 18 -72 19 -40 0 -149 1 -243 3 l-171 2 -28 53 c-16 28 -70 123
-121 210 l-92 158 41 78 c23 43 78 141 122 219 l80 142 248 0 c158 0 247 4
247 10 0 6 -88 10 -242 10 l-243 1 -23 36 c-13 20 -51 84 -84 142 -33 58 -78
136 -100 173 l-39 67 24 43 c14 24 56 99 95 168 39 69 82 144 96 168 l26 42
232 0 c210 0 275 7 256 25 -3 3 -113 6 -244 5 -238 0 -239 0 -253 22 -20 32
-203 347 -219 379 -13 24 -11 32 29 105 44 80 111 191 139 230 14 20 20 20 95
12 102 -12 273 -5 304 11 50 27 151 105 151 117 0 21 -28 24 -265 24 l-233 0
-83 148 c-46 81 -100 175 -121 210 l-38 63 53 97 c30 53 69 124 87 157 18 33
44 79 58 103 23 41 24 68 1 45 -6 -6 -17 -9 -24 -7 -22 9 -109 -89 -149 -166
-21 -41 -41 -77 -45 -80 -3 -3 -22 -35 -40 -72 l-35 -68 -211 0 c-207 0 -210
0 -224 23 -8 12 -48 81 -89 152 -41 72 -89 154 -106 184 -17 29 -30 56 -29 60
2 7 89 164 150 270 16 27 20 42 12 39 -14 -5 -51 -65 -124 -198 -51 -92 -62
-105 -78 -92 -9 7 -95 12 -255 13 l-242 1 -40 69 c-22 38 -58 101 -80 139 -23
39 -45 70 -50 70 -6 0 -10 -2 -10 -5 0 -3 36 -67 80 -143 44 -76 80 -145 80
-154 0 -17 -39 -93 -114 -221 -28 -48 -65 -114 -83 -145 -25 -45 -37 -57 -55
-55 -13 0 -130 2 -260 3 l-237 2 -48 81 c-26 45 -56 98 -66 117 -11 19 -43 76
-73 127 -30 51 -54 97 -54 102 0 6 8 25 18 43 10 18 44 79 75 134 31 56 57
105 57 108 0 3 -31 6 -70 6 -50 0 -70 -4 -70 -13 0 -7 -8 -28 -19 -47 -64
-118 -101 -194 -101 -204 0 -30 -45 -37 -214 -34 l-169 3 -84 145 c-46 80 -88
147 -95 149 -6 2 5 -25 25 -60z m2200 -306 c18 -32 75 -130 126 -218 l93 -160
247 3 248 4 20 -29 c11 -15 57 -93 103 -173 46 -80 96 -166 112 -192 l30 -48
-72 -136 c-39 -76 -82 -153 -94 -173 -13 -20 -35 -57 -50 -84 -22 -39 -31 -46
-49 -42 -20 5 -201 11 -412 14 l-80 2 -44 77 c-24 42 -67 118 -96 167 -29 50
-63 109 -76 132 l-23 41 22 44 c13 23 47 86 77 138 96 171 127 232 121 237 -9
9 -69 -59 -91 -103 -10 -21 -28 -52 -40 -69 -11 -16 -20 -32 -20 -35 0 -3 -21
-39 -45 -80 -25 -41 -49 -84 -55 -95 -10 -19 -22 -20 -247 -21 l-236 -2 -48
82 c-27 44 -53 90 -59 101 -7 12 -39 68 -73 126 -34 58 -62 111 -62 117 0 12
196 367 216 391 2 2 107 4 233 5 205 1 232 3 248 19 27 27 39 21 76 -40z
m-673 -606 l125 -216 251 5 250 6 101 -174 c55 -95 113 -196 129 -224 l28 -51
-121 -209 -121 -209 -248 -2 c-137 -2 -254 0 -259 5 -6 4 -31 43 -57 87 -25
44 -78 137 -118 207 l-72 127 42 78 c24 43 74 133 111 199 38 67 69 127 69
132 0 16 -31 7 -46 -13 -8 -10 -14 -15 -14 -9 -1 5 -13 -14 -28 -43 -15 -28
-40 -73 -56 -100 -91 -151 -126 -213 -126 -223 0 -7 -76 -10 -229 -10 l-230 0
-54 93 c-30 50 -85 145 -122 210 l-68 119 22 45 c32 65 170 303 185 318 10 10
63 14 207 15 215 1 231 3 274 36 17 13 34 22 40 21 5 -2 66 -101 135 -220z
m-946 -253 c9 -3 16 -12 16 -20 0 -8 5 -14 10 -14 6 0 10 -4 10 -9 0 -6 14
-30 30 -54 17 -25 30 -48 30 -52 0 -3 23 -45 51 -93 29 -48 60 -101 69 -118
41 -72 44 -75 69 -69 32 8 31 7 -97 -218 -91 -160 -110 -187 -127 -182 -11 2
-126 5 -256 5 l-236 0 -46 78 c-25 42 -55 95 -67 117 -12 22 -32 58 -44 80
-90 156 -86 146 -66 174 9 15 33 55 52 91 52 98 128 232 150 262 l18 27 209 1
c114 0 215 -2 225 -6z m2474 -618 c67 -117 122 -219 122 -226 0 -8 -37 -77
-82 -154 -45 -78 -92 -161 -105 -186 -48 -91 -25 -85 -308 -82 l-251 3 -31 52
c-17 29 -40 68 -50 87 -11 19 -34 57 -52 84 -17 28 -31 56 -31 63 0 7 -3 13
-7 13 -5 0 -23 29 -42 64 l-33 63 32 59 c95 171 175 312 193 337 l20 29 221
-6 c133 -3 227 -2 236 4 8 5 22 10 30 9 9 0 65 -86 138 -213z m-1845 138 c37
-7 37 -7 37 -53 0 -42 39 -145 60 -161 4 -3 17 -23 29 -45 137 -251 132 -237
104 -307 -9 -24 -20 -45 -24 -48 -4 -3 -13 -17 -19 -30 -5 -14 -22 -45 -35
-69 -14 -24 -25 -50 -25 -58 0 -11 -38 -13 -212 -11 l-212 3 -118 207 -117
207 57 103 c97 173 145 253 156 260 13 9 266 10 319 2z m1075 -575 c67 -115
122 -216 122 -224 0 -7 -8 -16 -18 -19 -10 -3 -35 -36 -57 -74 -21 -37 -49
-81 -61 -98 -13 -17 -20 -34 -17 -38 4 -3 1 -6 -5 -6 -7 0 -12 -5 -12 -10 0
-6 -20 -44 -45 -84 -25 -41 -45 -79 -45 -85 0 -8 -77 -11 -243 -11 l-242 0
-78 138 c-43 75 -97 171 -121 212 l-44 75 18 30 c9 17 52 93 95 170 43 77 89
157 102 178 l23 37 198 1 c108 0 217 4 242 8 25 5 50 9 55 10 6 0 65 -94 133
-210z m-971 -235 c22 -6 22 -6 3 -27 -29 -30 -34 -76 -15 -125 10 -23 21 -42
25 -42 4 0 10 -8 13 -17 4 -10 17 -36 31 -58 14 -22 39 -67 56 -100 18 -33 40
-69 51 -81 10 -11 19 -25 19 -32 0 -6 8 -16 18 -21 24 -13 27 -67 5 -100 -10
-14 -27 -44 -38 -66 -11 -22 -27 -51 -36 -65 -9 -14 -28 -45 -41 -70 l-25 -45
-231 -3 c-128 -1 -232 2 -232 6 0 5 -52 98 -115 208 -63 109 -115 204 -115
211 0 7 15 38 33 70 19 32 71 124 116 205 l83 147 101 4 c212 6 273 7 294 1z
m1625 -11 c18 -22 200 -334 223 -383 l16 -35 -125 -215 -124 -215 -41 0 c-23
1 -138 2 -256 3 -191 2 -216 4 -222 19 -4 9 -36 66 -71 127 -36 61 -86 148
-112 194 l-47 84 114 206 c63 114 121 213 130 220 12 9 81 12 258 12 218 0
243 -2 257 -17z m-902 -466 c21 -2 24 -7 26 -39 1 -37 51 -145 85 -183 9 -11
21 -32 24 -48 4 -15 12 -31 19 -35 6 -4 18 -20 26 -37 34 -69 76 -130 89 -130
8 0 18 -7 24 -16 8 -13 0 -33 -33 -90 -24 -41 -64 -111 -89 -156 l-46 -83
-241 0 c-182 0 -244 3 -252 13 -21 25 -232 400 -232 412 0 7 25 57 56 111 31
55 72 128 91 164 20 36 46 79 58 95 l22 30 174 -3 c96 -1 185 -3 199 -5z
m-687 -432 c-16 -33 -16 -37 3 -73 30 -55 48 -86 54 -92 7 -7 28 -44 51 -93
12 -23 29 -59 40 -81 10 -21 22 -56 25 -78 6 -37 4 -43 -43 -91 -72 -76 -163
-225 -163 -268 0 -34 -24 -38 -209 -39 -100 -1 -184 0 -186 2 -16 18 -225 390
-230 409 -4 17 -1 30 9 38 9 8 16 17 16 22 0 4 13 30 29 57 16 27 43 76 61
108 80 146 116 204 130 207 8 2 108 5 223 6 l207 2 -17 -36z m1577 16 c0 -7
67 -124 115 -202 10 -16 18 -30 94 -159 l39 -65 -27 -45 c-14 -26 -69 -121
-121 -213 -93 -164 -96 -168 -124 -162 -16 3 -130 5 -255 5 l-226 0 -43 78
c-24 42 -78 136 -119 209 l-74 132 64 113 c35 62 81 144 102 182 20 39 43 75
50 82 9 9 71 13 221 14 182 1 214 3 244 19 40 21 60 25 60 12z m1141 -744
c-10 -9 -11 -8 -5 6 3 10 9 15 12 12 3 -3 0 -11 -7 -18z"/>
<path d="M3850 5086 c0 -14 178 -302 189 -304 14 -3 11 3 -30 63 -15 23 -39
63 -55 90 -73 131 -88 155 -96 155 -5 0 -8 -2 -8 -4z"/>
<path d="M4560 5085 c0 -9 72 -35 81 -29 5 3 9 0 9 -6 0 -15 36 5 44 25 4 13
-6 15 -64 15 -39 0 -70 -2 -70 -5z"/>
<path d="M4628 4933 c-48 -85 -85 -160 -82 -165 4 -6 40 50 82 124 71 126 116
188 124 171 5 -12 312 2 334 15 14 9 -30 11 -176 11 l-195 0 -87 -156z"/>
<path d="M5340 5082 c0 -5 9 -17 20 -27 11 -10 20 -25 20 -32 0 -8 9 -26 20
-40 11 -14 20 -32 20 -39 0 -8 4 -14 9 -14 5 0 18 -20 30 -44 11 -25 25 -47
31 -51 5 -3 10 -14 10 -24 0 -10 10 -25 22 -33 l22 -15 -22 -42 c-12 -23 -22
-45 -22 -50 0 -5 21 -12 48 -17 l47 -8 -45 -7 -45 -6 52 -1 c28 -1 59 -5 68
-9 14 -5 16 -2 10 15 -5 17 -2 22 12 22 11 0 25 -6 32 -12 12 -11 13 -10 7 6
-6 17 -3 18 26 11 52 -11 110 -6 150 15 21 11 37 16 37 12 -3 -21 3 -24 15 -7
11 15 17 17 28 7 12 -9 14 -8 14 11 -1 16 6 23 22 25 12 2 22 8 22 13 0 6 5 7
12 3 6 -4 8 -3 4 4 -3 6 4 18 16 26 20 14 2 16 -222 18 l-244 3 -86 145 c-74
124 -90 145 -113 148 -15 2 -27 -1 -27 -6z"/>
<path d="M6062 4640 c0 -14 2 -19 5 -12 2 6 2 18 0 25 -3 6 -5 1 -5 -13z"/>
<path d="M5548 4593 c45 -4 52 -15 25 -37 -108 -88 -143 -123 -152 -147 -9
-26 -15 -29 -53 -30 -24 0 -36 -3 -28 -6 8 -2 21 -7 29 -9 10 -3 10 -8 2 -18
-6 -7 -8 -15 -5 -18 3 -4 -4 -24 -15 -47 -12 -22 -21 -45 -21 -50 0 -18 34
-51 52 -51 9 0 20 -4 23 -10 4 -6 -6 -10 -22 -10 -27 0 -72 -20 -46 -20 6 0
15 -10 18 -22 16 -55 79 -170 100 -184 17 -11 45 -15 101 -13 62 2 79 -1 89
-14 15 -21 25 -22 25 -1 0 9 6 14 13 11 7 -2 11 -16 9 -33 -2 -25 -1 -26 8
-11 15 24 33 10 26 -19 -6 -24 9 -35 16 -12 8 23 28 -3 23 -30 -3 -17 -3 -21
2 -10 12 27 37 6 28 -23 -6 -19 -5 -21 5 -12 21 19 41 4 34 -26 -4 -18 -3 -22
4 -12 11 15 32 7 32 -13 0 -7 7 -13 15 -13 19 0 12 10 -66 92 -123 130 -134
144 -112 151 36 12 41 13 48 6 12 -12 40 -7 52 8 10 14 75 47 128 65 l20 7
-20 8 c-19 8 -18 9 5 11 14 2 -47 6 -135 9 l-160 5 -79 139 -79 138 19 37 c10
20 40 74 66 121 26 46 44 88 42 92 -3 4 -29 7 -57 6 -50 -1 -51 -2 -9 -5z"/>
<path d="M5454 4547 c3 -10 6 -21 6 -23 0 -2 9 -4 20 -4 11 0 20 5 20 11 0 5
-5 7 -12 3 -6 -4 -18 2 -26 12 -14 18 -14 18 -8 1z"/>
<path d="M4781 4314 c-7 -19 -11 -38 -8 -41 3 -2 8 4 11 15 5 14 13 18 28 14
15 -3 19 -2 14 7 -6 9 48 11 224 11 128 -1 234 1 237 4 21 21 -26 26 -251 26
l-242 0 -13 -36z"/>
<path d="M4915 4300 c17 -7 16 -9 -10 -10 -16 -1 -37 -2 -45 -1 -17 1 -47 -16
-40 -23 5 -4 144 -9 210 -7 28 1 32 4 20 12 -11 8 -3 9 32 6 26 -2 45 -1 42 4
-2 4 -39 8 -81 7 -49 0 -79 4 -81 11 -2 6 -18 11 -35 10 -27 0 -29 -2 -12 -9z"/>
<path d="M5208 4303 c7 -3 16 -2 19 1 4 3 -2 6 -13 5 -11 0 -14 -3 -6 -6z"/>
<path d="M4808 4107 c-43 -38 -95 -119 -128 -200 -20 -48 -22 -61 -12 -75 7
-9 19 -30 26 -47 8 -16 18 -34 23 -38 4 -5 8 -12 9 -15 2 -18 19 -49 37 -69
20 -22 20 -23 1 -23 -16 0 -17 -2 -4 -10 8 -5 23 -7 33 -4 9 3 17 0 17 -6 0
-6 -4 -8 -10 -5 -5 3 -12 -6 -16 -20 -7 -30 -7 -30 24 -39 26 -9 30 9 5 23
-10 5 -14 13 -10 17 5 5 12 2 17 -6 7 -11 11 -11 23 -1 9 7 18 8 21 3 3 -6 -1
-13 -10 -16 -9 -4 -14 -9 -10 -13 9 -9 49 -13 156 -15 83 -2 102 1 147 22 29
14 53 28 53 33 0 4 -71 7 -157 7 l-158 1 -63 112 c-34 61 -70 124 -79 139 -17
27 -16 29 9 80 15 29 46 86 68 126 23 39 38 72 33 72 -4 0 -24 -15 -45 -33z
m135 -514 c-7 -2 -19 -2 -25 0 -7 3 -2 5 12 5 14 0 19 -2 13 -5z m16 -17 c-10
-9 -79 -14 -79 -5 0 5 19 9 42 9 23 0 39 -2 37 -4z"/>
<path d="M6037 4025 c10 -13 25 -27 33 -30 8 -4 2 8 -14 24 -36 37 -43 40 -19
6z"/>
<path d="M5910 3680 c0 -5 5 -10 11 -10 5 0 7 5 4 10 -3 6 -8 10 -11 10 -2 0
-4 -4 -4 -10z"/>
<path d="M5383 3653 c-7 -2 -12 -14 -12 -26 1 -16 2 -18 6 -5 2 10 10 15 19
11 10 -4 12 0 8 11 -3 9 -7 16 -8 15 0 0 -7 -3 -13 -6z"/>
<path d="M5580 3493 c-8 -2 -34 -40 -58 -84 -41 -77 -42 -82 -26 -100 15 -17
33 -19 159 -19 118 0 144 3 149 15 4 12 -3 15 -34 15 -38 0 -40 2 -81 72 -33
56 -40 75 -31 88 9 15 6 17 -26 17 -20 0 -44 -2 -52 -4z"/>
<path d="M153 3364 c-28 -49 -74 -129 -102 -177 -28 -48 -51 -96 -51 -105 0
-9 47 66 105 167 58 102 104 189 102 194 -2 6 -26 -30 -54 -79z"/>
<path d="M4890 3407 c0 -3 11 -17 25 -31 14 -14 25 -22 25 -17 0 4 -11 18 -25
31 -14 13 -25 21 -25 17z"/>
<path d="M4950 3344 c0 -13 18 -39 24 -34 2 3 -2 14 -10 24 -8 11 -14 16 -14
10z"/>
<path d="M4803 3232 c-26 -26 -47 -55 -45 -64 2 -11 -7 -18 -30 -24 -18 -4
-27 -9 -20 -11 6 -3 12 -16 12 -29 0 -19 -5 -24 -24 -24 -17 0 -25 -6 -24 -17
0 -39 -12 -87 -24 -94 -8 -6 -9 -9 -2 -9 7 0 11 -8 10 -17 -1 -11 10 -20 32
-26 35 -11 41 -21 17 -31 -13 -5 -13 -9 -3 -25 9 -15 14 -17 20 -8 4 7 5 -2 2
-19 -5 -28 -2 -34 29 -53 19 -11 46 -21 61 -21 39 0 22 -20 -17 -21 -27 0 -29
-2 -12 -9 15 -6 16 -9 4 -9 -9 -1 -16 -8 -16 -16 0 -13 32 -15 236 -13 130 1
219 3 198 5 -38 4 -38 5 -21 24 17 19 15 19 -143 19 l-160 0 -68 123 c-37 67
-73 130 -79 140 -8 12 -8 22 0 35 6 9 28 49 49 87 20 39 48 89 62 113 33 56
15 53 -44 -6z"/>
<path d="M5557 3272 c-30 -3 -37 -7 -33 -19 4 -9 1 -22 -5 -29 -10 -12 5 -14
91 -14 87 0 101 2 96 15 -3 8 -2 15 2 15 5 0 17 6 28 14 17 13 11 15 -61 18
-44 1 -97 2 -118 0z"/>
<path d="M6080 3190 c0 -5 5 -10 11 -10 5 0 7 5 4 10 -3 6 -8 10 -11 10 -2 0
-4 -4 -4 -10z"/>
<path d="M5404 2810 c1 -8 10 -16 21 -17 15 -1 15 0 3 3 -9 3 -19 11 -21 17
-2 7 -3 5 -3 -3z"/>
<path d="M5370 2800 c0 -5 5 -10 11 -10 5 0 7 5 4 10 -3 6 -8 10 -11 10 -2 0
-4 -4 -4 -10z"/>
<path d="M5534 2709 c-19 -22 -19 -22 4 -10 12 6 22 16 22 21 0 15 -5 12 -26
-11z"/>
<path d="M5323 2693 c26 -2 68 -2 95 0 26 2 4 3 -48 3 -52 0 -74 -1 -47 -3z"/>
<path d="M5591 2646 c10 -8 89 -13 89 -5 0 5 -21 9 -47 9 -25 0 -44 -2 -42 -4z"/>
<path d="M5532 2569 c-41 -41 -50 -55 -41 -65 9 -11 8 -14 -5 -14 -9 0 -16 -6
-16 -14 0 -8 -14 -18 -32 -22 l-33 -7 25 -9 25 -10 -30 -12 c-24 -10 -26 -13
-12 -19 9 -3 14 -13 11 -20 -3 -9 4 -17 18 -21 22 -7 22 -8 3 -15 -16 -7 -14
-9 14 -14 70 -14 184 -4 182 16 -3 22 0 28 12 24 16 -6 47 11 47 26 0 7 -9 25
-19 41 l-20 30 -35 -39 c-20 -21 -38 -36 -41 -33 -3 3 10 22 28 43 26 29 42
38 66 38 17 0 31 1 31 2 0 8 -37 73 -47 84 -8 7 -12 20 -9 27 4 10 -4 14 -28
14 -19 0 -36 4 -38 10 -1 5 -27 -13 -56 -41z m108 -4 c0 -16 -35 -21 -44 -6
-8 12 4 21 26 21 10 0 18 -7 18 -15z m-105 -55 c-3 -5 -11 -10 -16 -10 -6 0
-7 5 -4 10 3 6 11 10 16 10 6 0 7 -4 4 -10z m95 5 c0 -10 -95 -95 -107 -95 -6
0 12 23 40 50 46 45 67 59 67 45z m50 -5 c0 -5 -7 -10 -15 -10 -8 0 -15 5 -15
10 0 6 7 10 15 10 8 0 15 -4 15 -10z"/>
<path d="M5028 2583 c78 -2 206 -2 285 0 78 1 14 3 -143 3 -157 0 -221 -2
-142 -3z"/>
<path d="M5769 2431 c7 -5 10 -14 7 -20 -4 -6 -3 -11 1 -11 5 0 14 9 21 20 11
18 10 20 -15 20 -20 0 -24 -3 -14 -9z"/>
<path d="M4860 2405 c0 -8 2 -15 4 -15 2 0 6 7 10 15 3 8 1 15 -4 15 -6 0 -10
-7 -10 -15z"/>
<path d="M4830 2402 c0 -5 -6 -9 -12 -10 -7 -1 -38 -5 -68 -10 l-55 -10 48 -1
c26 0 47 -6 47 -11 0 -14 -44 -30 -88 -31 l-37 -1 30 -8 c17 -4 24 -8 18 -9
-7 0 -12 -7 -10 -13 1 -8 -14 -15 -38 -18 l-40 -6 38 -7 c41 -9 46 -30 8 -35
-20 -3 -22 -8 -17 -36 5 -23 2 -37 -9 -46 -19 -16 -19 -49 0 -56 25 -10 17
-24 -14 -24 -39 0 -44 -10 -21 -48 16 -27 26 -31 67 -34 53 -3 58 -23 5 -23
-33 0 -39 -9 -23 -34 7 -11 13 -12 23 -4 10 8 20 8 38 -2 17 -10 20 -14 9 -15
-31 0 -42 -26 -24 -54 10 -14 21 -23 26 -20 5 3 6 -2 3 -11 -9 -23 13 -43 41
-37 27 5 32 16 13 28 -7 5 -8 2 -3 -7 4 -8 -2 -5 -13 6 -28 27 -33 68 -9 73
27 6 87 -7 87 -18 0 -6 -6 -10 -13 -10 -21 0 -34 -19 -30 -44 4 -19 10 -22 43
-20 53 2 74 17 35 25 -29 6 -29 7 -4 8 30 1 48 -16 44 -41 -4 -22 23 -32 44
-16 13 10 14 10 4 -2 -48 -53 36 -1 99 63 10 9 23 17 29 17 10 0 -25 -50 -80
-115 -22 -25 -19 -24 14 6 22 20 57 51 78 69 20 18 37 37 37 42 0 4 -60 8
-132 8 l-133 0 -75 132 c-41 73 -76 138 -78 145 -2 8 12 41 31 76 19 34 46 84
61 110 28 51 32 72 16 82 -5 3 -10 2 -10 -3z m140 -562 c0 -12 -17 -12 -45 0
-17 7 -15 9 13 9 17 1 32 -3 32 -9z"/>
<path d="M5718 2351 c-18 -16 -31 -31 -28 -33 3 -2 21 11 40 29 43 41 33 44
-12 4z"/>
<path d="M5749 2283 c-13 -16 -12 -17 4 -4 9 7 17 15 17 17 0 8 -8 3 -21 -13z"/>
<path d="M6080 2170 c0 -5 5 -10 11 -10 5 0 7 5 4 10 -3 6 -8 10 -11 10 -2 0
-4 -4 -4 -10z"/>
<path d="M5458 2093 c28 -2 76 -2 105 0 28 2 5 3 -53 3 -58 0 -81 -1 -52 -3z"/>
<path d="M5155 1834 l-17 -27 26 19 c26 19 33 34 17 34 -5 0 -16 -12 -26 -26z"/>
<path d="M5705 1850 c3 -6 -6 -15 -20 -20 -19 -7 -25 -15 -21 -26 8 -20 -24
-75 -73 -128 -32 -34 -33 -37 -8 -21 15 9 27 22 27 28 0 6 3 8 6 5 3 -4 -2
-18 -11 -31 -16 -24 -15 -26 5 -37 11 -6 24 -8 29 -5 5 3 9 -11 8 -30 -1 -43
8 -53 34 -37 19 12 19 11 8 -10 -9 -19 -9 -21 2 -10 8 7 40 12 80 12 47 0 70
4 79 15 11 13 3 15 -58 15 -67 0 -71 1 -85 28 -8 15 -25 46 -38 69 l-24 42 38
70 c40 76 42 81 26 81 -5 0 -7 -5 -4 -10z"/>
<path d="M5758 1853 c7 -3 16 -2 19 1 4 3 -2 6 -13 5 -11 0 -14 -3 -6 -6z"/>
<path d="M5609 1793 l-24 -28 28 24 c15 14 27 26 27 28 0 8 -8 1 -31 -24z"/>
<path d="M6013 1743 c15 -2 37 -2 50 0 12 2 0 4 -28 4 -27 0 -38 -2 -22 -4z"/>
<path d="M178 1673 c-8 -10 -34 -51 -57 -90 -22 -40 -59 -105 -82 -143 -22
-39 -39 -78 -37 -88 3 -11 13 -1 30 33 14 28 58 106 97 174 68 117 83 153 49
114z"/>
<path d="M4808 1593 c6 -2 18 -2 25 0 6 3 1 5 -13 5 -14 0 -19 -2 -12 -5z"/>
<path d="M6084 1580 c0 -13 4 -16 10 -10 7 7 7 13 0 20 -6 6 -10 3 -10 -10z"/>
<path d="M5616 1554 c-5 -14 -4 -15 9 -4 17 14 19 20 6 20 -5 0 -12 -7 -15
-16z"/>
<path d="M6077 1440 c-3 -13 0 -20 9 -20 15 0 19 26 5 34 -5 3 -11 -3 -14 -14z"/>
<path d="M5599 1433 c-13 -16 -12 -17 4 -4 16 13 21 21 13 21 -2 0 -10 -8 -17
-17z"/>
<path d="M5559 1393 c-13 -16 -12 -17 4 -4 16 13 21 21 13 21 -2 0 -10 -8 -17
-17z"/>
<path d="M5940 1349 c0 -5 5 -7 10 -4 6 3 10 8 10 11 0 2 -4 4 -10 4 -5 0 -10
-5 -10 -11z"/>
<path d="M5940 1290 c0 -5 5 -10 11 -10 5 0 7 5 4 10 -3 6 -8 10 -11 10 -2 0
-4 -4 -4 -10z"/>
<path d="M841 1067 c-57 -100 -113 -194 -123 -209 l-19 -28 -229 0 c-126 0
-239 4 -252 9 -16 6 -54 63 -118 176 -94 164 -95 166 -98 127 -3 -34 8 -60 80
-186 46 -80 89 -146 96 -146 31 0 -15 -116 -117 -292 -33 -59 -61 -112 -61
-119 0 -18 223 -399 233 -399 5 0 3 10 -5 23 -8 12 -61 102 -117 199 l-102
178 19 27 c10 16 36 60 57 98 21 39 56 98 78 133 35 54 42 60 56 49 10 -9 48
-15 101 -16 47 -1 114 -10 150 -19 64 -17 65 -18 68 -55 2 -20 7 -37 12 -37 5
0 23 -28 40 -62 43 -87 74 -142 82 -148 3 -3 17 -24 30 -47 13 -23 41 -54 62
-68 42 -29 103 -36 117 -14 5 8 9 10 9 5 0 -6 7 -1 16 10 18 21 -76 -160 -113
-219 -17 -27 -20 -37 -9 -37 7 0 21 16 31 36 25 53 115 201 115 189 0 -5 5 -3
10 5 5 8 10 10 10 5 0 -10 206 -3 275 10 17 3 40 7 52 9 33 6 73 28 137 75 44
32 55 46 45 52 -8 5 -122 9 -254 9 l-240 1 -50 86 c-62 108 -109 190 -158 274
l-37 66 48 84 c77 133 192 340 192 345 0 22 -31 -24 -119 -179z"/>
<path d="M5715 1230 c-15 -17 -16 -20 -3 -20 9 0 18 9 21 20 3 11 4 20 3 20
-2 0 -11 -9 -21 -20z"/>
<path d="M5755 1169 c-11 -17 1 -21 15 -4 8 9 8 15 2 15 -6 0 -14 -5 -17 -11z"/>
<path d="M5888 1163 c39 -2 105 -2 145 0 39 1 7 3 -73 3 -80 0 -112 -2 -72 -3z"/>
<path d="M6018 1133 c12 -2 32 -2 45 0 12 2 2 4 -23 4 -25 0 -35 -2 -22 -4z"/>
<path d="M5529 1083 c-13 -16 -12 -17 4 -4 9 7 17 15 17 17 0 8 -8 3 -21 -13z"/>
<path d="M5745 1048 l-50 -53 53 50 c48 46 57 55 49 55 -1 0 -25 -24 -52 -52z"/>
<path d="M5643 946 c-21 -24 -43 -54 -50 -67 -31 -67 -51 -124 -42 -127 5 -2
9 -10 9 -19 0 -10 6 -12 21 -8 19 6 20 5 9 -15 -6 -12 -9 -28 -6 -36 5 -12 15
-9 51 16 52 36 59 28 13 -15 -25 -24 -28 -31 -15 -33 9 -2 17 -8 17 -13 0 -12
27 2 58 31 l23 21 -42 77 -43 76 32 57 c38 68 40 83 11 76 -16 -4 -18 -3 -8 9
6 8 9 14 6 14 -3 0 -23 -20 -44 -44z"/>
<path d="M5539 883 l-24 -28 28 24 c25 23 32 31 24 31 -2 0 -14 -12 -28 -27z"/>
<path d="M6076 703 c-6 -14 -5 -15 5 -6 7 7 10 15 7 18 -3 3 -9 -2 -12 -12z"/>
<path d="M5738 673 c-9 -10 -21 -29 -28 -42 l-13 -24 28 21 c40 32 50 27 24
-10 -20 -29 -16 -27 30 15 55 49 88 64 55 25 -10 -13 -43 -50 -74 -83 -41 -45
-34 -40 28 20 45 44 82 83 82 87 0 5 -26 8 -58 8 -44 0 -63 -5 -74 -17z"/>
<path d="M5734 365 c0 -55 1 -76 3 -47 2 29 2 74 0 100 -2 26 -3 2 -3 -53z"/>
<path d="M5763 370 c0 -30 2 -43 4 -27 2 15 2 39 0 55 -2 15 -4 2 -4 -28z"/>
<path d="M5571 212 c-21 -22 -36 -31 -39 -24 -6 19 -22 4 -22 -21 -1 -22 -1
-22 -15 -3 -14 19 -15 18 -16 -10 l0 -29 -11 25 c-11 24 -12 23 -18 -20 -3
-25 -16 -61 -28 -80 -12 -19 -22 -38 -22 -42 0 -5 26 -8 59 -8 l59 0 43 83
c23 45 51 97 61 115 10 18 18 37 18 42 0 21 -37 6 -69 -28z"/>
</g>
</svg>
